<?xml version="1.0" encoding="UTF-8"?>
<svg width="24" height="24" viewBox="0 0 24 24" fill="none" xmlns="http://www.w3.org/2000/svg">
  <path d="M9.5 2C8.7 2.4 8.1 3.2 8 4C7.9 4.8 8.2 5.6 8.8 6.2C7.9 6.8 7.3 7.8 7.3 9C7.3 9.6 7.5 10.1 7.8 10.6C7 11.1 6.5 12 6.5 13C6.5 13.6 6.7 14.1 7 14.6C6.2 15.1 5.7 16 5.7 17C5.7 18.7 7.1 20 8.8 20H15.2C16.9 20 18.3 18.7 18.3 17C18.3 16 17.8 15.1 17 14.6C17.3 14.1 17.5 13.6 17.5 13C17.5 12 17 11.1 16.2 10.6C16.5 10.1 16.7 9.6 16.7 9C16.7 7.8 16.1 6.8 15.2 6.2C15.8 5.6 16.1 4.8 16 4C15.9 3.2 15.3 2.4 14.5 2M12 6C13.1 6 14 6.9 14 8C14 9.1 13.1 10 12 10C10.9 10 10 9.1 10 8C10 6.9 10.9 6 12 6Z" fill="#6366f1"/>
</svg>
