<?xml version="1.0" encoding="UTF-8"?>
<svg width="200" height="200" viewBox="0 0 200 200" fill="none" xmlns="http://www.w3.org/2000/svg">
  <circle cx="100" cy="100" r="100" fill="#1F2937"/>
  <path d="M100 90C113.807 90 125 78.8071 125 65C125 51.1929 113.807 40 100 40C86.1929 40 75 51.1929 75 65C75 78.8071 86.1929 90 100 90Z" fill="#4F46E5"/>
  <path d="M140 150C140 128.909 122.091 110 100 110C77.9086 110 60 128.909 60 150V160H140V150Z" fill="#4F46E5"/>
  <path d="M85 65C85 62.2386 87.2386 60 90 60H110C112.761 60 115 62.2386 115 65V70H85V65Z" fill="#1F2937"/>
</svg>
